<?xml version="1.0" encoding="iso-8859-1"?>
<!-- Generator: Adobe Illustrator 18.1.1, SVG Export Plug-In . SVG Version: 6.00 Build 0)  -->
<svg version="1.1" id="Capa_1" xmlns="http://www.w3.org/2000/svg" xmlns:xlink="http://www.w3.org/1999/xlink" x="0px" y="0px"
	 viewBox="0 0 31.217 31.217" style="enable-background:new 0 0 31.217 31.217;" xml:space="preserve">
<g>
	<g id="c48_bag">
		<path d="M29.066,8.165h-8.303v-1.04c0-4.429-4.201-4.169-4.201-4.169h-1.986c-4.428,0-4.199,4.2-4.199,4.2v1.009H2.042
			C-0.076,8.165,0,10.25,0,10.25v4.07c0,0,8.889,3.234,15.543,3.234c7.271,0,15.671-3.266,15.671-3.266V10.25
			C31.215,8.066,29.066,8.165,29.066,8.165z M13.18,7.038c0-2.085,2.447-2.116,2.447-2.116c2.482,0,2.406,2.148,2.406,2.148v1.043
			H13.18V7.038z M18.189,16.781l-5.164,0.004v-1.991h5.164V16.781z"/>
		<path d="M31.215,26.178V15.791c0,0-6.762,3.114-15.716,3.114C7.262,18.905,0,15.694,0,15.694v10.483
			c0,2.117,2.008,2.086,2.008,2.086H29.1C31.346,28.264,31.215,26.178,31.215,26.178z M18.189,20.685
			c0,0.715-0.576,1.292-1.289,1.292h-2.584c-0.713,0-1.291-0.577-1.291-1.292v-1.332h5.164V20.685z"/>
	</g>
	<g id="Capa_1_101_">
	</g>
</g>
<g>
</g>
<g>
</g>
<g>
</g>
<g>
</g>
<g>
</g>
<g>
</g>
<g>
</g>
<g>
</g>
<g>
</g>
<g>
</g>
<g>
</g>
<g>
</g>
<g>
</g>
<g>
</g>
<g>
</g>
</svg>
