<?xml version="1.0" encoding="iso-8859-1"?>
<!-- Generator: Adobe Illustrator 19.0.0, SVG Export Plug-In . SVG Version: 6.00 Build 0)  -->
<svg version="1.1" id="Layer_1" xmlns="http://www.w3.org/2000/svg" xmlns:xlink="http://www.w3.org/1999/xlink" x="0px" y="0px"
	 viewBox="0 0 512 512" style="enable-background:new 0 0 512 512;" xml:space="preserve">
<path style="fill:#0E7886;" d="M255.999,512C397,512,512,396.998,512,255.999S397,0,255.999,0C115,0,0,115,0,255.999
	S115.002,512,255.999,512z"/>
<path style="fill:#FBB429;" d="M113.862,133.386l370.688,7.199c17.548,34.68,27.446,73.888,27.446,115.412
	c0,141.387-114.614,255.999-255.997,255.999c-55.392,0-106.674-17.597-148.564-47.499L113.862,133.386z"/>
<path style="fill:#20D0C2;" d="M71.659,193.906l393.223-85.933c29.668,41.793,47.113,92.872,47.113,148.026
	c0,141.387-114.614,255.999-255.997,255.999c-43.98,0-85.365-11.095-121.519-30.63l-62.82-287.46V193.906z"/>
<path style="fill:#377BB9;" d="M313.058,197.337c5.038,2.661,8.07,6.95,6.775,9.573c-1.296,2.626-6.429,2.595-11.467-0.064
	c-5.036-2.663-8.067-6.95-6.773-9.576C302.889,194.645,308.022,194.674,313.058,197.337z"/>
<path style="fill:#FBB429;" d="M448.044,54.142l-50.912,97.778l-65.991-49.064l78.971-76.916l-10.951-8.142
	c-4.361-3.241-5.274-9.454-2.028-13.818c3.246-4.366,9.457-5.281,13.818-2.037l59.824,44.478c4.366,3.248,5.278,9.459,2.033,13.824
	s-9.459,5.278-13.822,2.033l-10.943-8.134L448.044,54.142z"/>
<path style="fill:#F5A209;" d="M410.112,25.942l-10.949-8.145c-4.116-3.06-5.162-8.771-2.533-13.07l75.608,56.214
	c-3.362,3.755-9.13,4.399-13.251,1.336l-10.943-8.134L410.112,25.942z"/>
<path style="fill:#FFFFFF;" d="M350.994,132.233l12.283,9.132l-47.812,64.308c-5.618,4.502-15.335-3.53-12.283-9.132l47.814-64.306
	L350.994,132.233z"/>
<path style="fill:#FBB429;" d="M332.507,90.912l75.663,56.256c6.121,4.553,7.406,13.28,2.853,19.403
	c-4.551,6.121-13.28,7.406-19.4,2.853l-75.663-56.256c-6.121-4.553-7.406-13.28-2.853-19.403c4.551-6.123,13.28-7.406,19.403-2.853
	H332.507z"/>
<path style="fill:#F5A209;" d="M411.025,166.569c-4.551,6.123-13.28,7.406-19.403,2.853l-75.663-56.256
	c-6.121-4.553-7.406-13.278-2.853-19.403l97.919,72.804V166.569z"/>
<path style="fill:#FFFFFF;" d="M137.083,264.653l307.733-60.45l3.563,12.268l-309.226,60.655L137.083,264.653z M165.16,377.128
	L165.16,377.128l198.477-39.017l3.166,12.345l-199.571,39.147l-2.073-12.473V377.128z M158.142,349.01L158.142,349.01l2.07,12.471
	l309.226-60.655l-3.565-12.266L158.142,349.01z M151.122,320.889L151.122,320.889l2.07,12.473l309.224-60.655l-3.561-12.268
	L151.122,320.889z M144.101,292.773L144.101,292.773l2.073,12.471L455.4,244.589l-3.563-12.266L144.101,292.773z"/>
<g>
</g>
<g>
</g>
<g>
</g>
<g>
</g>
<g>
</g>
<g>
</g>
<g>
</g>
<g>
</g>
<g>
</g>
<g>
</g>
<g>
</g>
<g>
</g>
<g>
</g>
<g>
</g>
<g>
</g>
</svg>
