<?xml version="1.0" encoding="iso-8859-1"?>
<!-- Generator: Adobe Illustrator 19.0.0, SVG Export Plug-In . SVG Version: 6.00 Build 0)  -->
<svg version="1.1" id="Layer_1" xmlns="http://www.w3.org/2000/svg" xmlns:xlink="http://www.w3.org/1999/xlink" x="0px" y="0px"
	 viewBox="0 0 512 512" style="enable-background:new 0 0 512 512;" xml:space="preserve">
<path style="fill:#38A287;" d="M391.502,8.17H120.497c-19.2,0-34.908,15.441-34.908,34.313v23.418H426.41V42.483
	C426.409,23.611,410.702,8.17,391.502,8.17z"/>
<path style="fill:#67C7A2;" d="M85.127,65.901l17.051,401.74c0.814,19.183,17.189,34.877,36.388,34.877h234.474
	c19.2,0,35.574-15.694,36.388-34.877l17.05-401.74C426.477,65.901,85.127,65.901,85.127,65.901z"/>
<circle style="fill:#1E3D2E;" cx="370.143" cy="447.564" r="56.269"/>
<circle style="fill:#CED4D2;" cx="370.143" cy="447.564" r="23.588"/>
<path d="M263.075,120.152c-1.46-2.527-4.156-4.085-7.075-4.085c-2.919,0-5.616,1.558-7.075,4.085l-49.515,85.762l-3.818-13.132
	c-1.259-4.332-5.793-6.824-10.126-5.564c-4.333,1.259-6.825,5.793-5.564,10.127l9.164,31.521c0.01,0.035,0.027,0.066,0.039,0.101
	c0.119,0.389,0.26,0.771,0.436,1.139c0.007,0.014,0.012,0.029,0.02,0.044c0.172,0.357,0.379,0.697,0.604,1.027
	c0.04,0.06,0.08,0.121,0.122,0.18c0.222,0.308,0.466,0.604,0.733,0.881c0.046,0.048,0.095,0.093,0.142,0.139
	c0.253,0.249,0.521,0.486,0.808,0.705c0.035,0.027,0.069,0.057,0.103,0.083c0.241,0.176,0.49,0.343,0.755,0.496
	c0.058,0.034,0.119,0.056,0.178,0.087c0.13,0.071,0.264,0.132,0.397,0.196c0.24,0.114,0.48,0.219,0.727,0.308
	c0.133,0.048,0.266,0.093,0.401,0.135c0.27,0.083,0.543,0.148,0.818,0.203c0.12,0.023,0.237,0.052,0.358,0.07
	c0.4,0.06,0.801,0.098,1.2,0.098c0,0,0,0,0.001,0h0.001c0.336,0,0.674-0.023,1.013-0.064c0.127-0.016,0.252-0.048,0.379-0.07
	c0.187-0.032,0.374-0.057,0.561-0.102l31.88-7.825c4.382-1.075,7.062-5.5,5.987-9.882c-1.075-4.383-5.505-7.062-9.882-5.987
	l-13.282,3.259l42.435-73.509l24.329,42.14c2.256,3.909,7.255,5.246,11.161,2.99c3.908-2.256,5.246-7.253,2.99-11.161
	L263.075,120.152z"/>
<path d="M173.493,250.803l-31.391,54.371c-1.46,2.527-1.46,5.643,0,8.17c1.46,2.527,4.156,4.085,7.075,4.085h99.03l-9.464,9.873
	c-3.123,3.257-3.013,8.43,0.244,11.552c1.584,1.519,3.62,2.272,5.653,2.272c2.149,0,4.294-0.842,5.899-2.516l22.715-23.697
	c0.064-0.066,0.117-0.137,0.179-0.205c0.098-0.11,0.198-0.22,0.291-0.336c0.08-0.099,0.152-0.202,0.227-0.303
	c0.081-0.11,0.161-0.219,0.236-0.333c0.073-0.111,0.138-0.224,0.206-0.338c0.066-0.113,0.134-0.224,0.196-0.341
	c0.061-0.117,0.114-0.236,0.171-0.355c0.056-0.119,0.111-0.237,0.161-0.361c0.049-0.12,0.09-0.242,0.133-0.363
	c0.045-0.126,0.09-0.252,0.13-0.38c0.037-0.125,0.066-0.253,0.097-0.38c0.032-0.127,0.066-0.254,0.091-0.385
	c0.028-0.147,0.047-0.294,0.069-0.442c0.015-0.112,0.036-0.223,0.047-0.337c0.025-0.264,0.04-0.528,0.04-0.793c0,0,0-0.001,0-0.002
	l0,0c0-0.266-0.015-0.532-0.04-0.796c-0.011-0.112-0.03-0.221-0.047-0.331c-0.021-0.15-0.038-0.3-0.069-0.449
	c-0.025-0.129-0.059-0.253-0.089-0.379c-0.032-0.13-0.062-0.258-0.1-0.386s-0.083-0.251-0.127-0.375
	c-0.044-0.124-0.085-0.247-0.134-0.368c-0.05-0.121-0.106-0.239-0.16-0.356c-0.057-0.121-0.112-0.242-0.173-0.361
	c-0.061-0.114-0.126-0.224-0.193-0.337c-0.066-0.114-0.134-0.23-0.207-0.343c-0.074-0.112-0.156-0.22-0.234-0.329
	c-0.075-0.102-0.149-0.206-0.229-0.306c-0.093-0.114-0.192-0.224-0.291-0.334c-0.061-0.069-0.114-0.139-0.179-0.206l-22.715-23.696
	c-3.122-3.257-8.294-3.366-11.552-0.244c-3.257,3.122-3.367,8.294-0.244,11.552l9.464,9.873H163.33l24.316-42.116
	c2.256-3.908,0.917-8.904-2.99-11.16C180.745,245.555,175.749,246.893,173.493,250.803z"/>
<path d="M343.546,216.684c1.075-4.382-1.606-8.806-5.987-9.882l-31.88-7.824c-0.094-0.023-0.187-0.035-0.281-0.054
	c-0.139-0.029-0.278-0.06-0.418-0.082c-0.13-0.021-0.259-0.033-0.389-0.047c-0.132-0.014-0.263-0.029-0.394-0.037
	c-0.135-0.008-0.269-0.008-0.403-0.009c-0.129-0.001-0.257-0.003-0.386,0.001c-0.134,0.005-0.266,0.019-0.398,0.029
	c-0.131,0.012-0.26,0.022-0.39,0.039c-0.129,0.017-0.256,0.044-0.383,0.068c-0.13,0.024-0.26,0.047-0.391,0.077
	c-0.129,0.031-0.255,0.07-0.382,0.107c-0.124,0.036-0.249,0.069-0.374,0.111c-0.147,0.05-0.29,0.111-0.432,0.169
	c-0.1,0.04-0.2,0.075-0.298,0.121c-0.486,0.221-0.95,0.488-1.385,0.8c-0.083,0.059-0.16,0.125-0.24,0.186
	c-0.127,0.099-0.256,0.196-0.378,0.303c-0.094,0.082-0.18,0.169-0.269,0.253c-0.101,0.097-0.203,0.192-0.298,0.294
	c-0.086,0.092-0.166,0.187-0.248,0.283c-0.09,0.105-0.181,0.208-0.266,0.318c-0.075,0.097-0.144,0.198-0.214,0.297
	c-0.082,0.114-0.163,0.229-0.239,0.35c-0.065,0.102-0.123,0.207-0.183,0.313c-0.07,0.124-0.142,0.247-0.205,0.376
	c-0.056,0.111-0.105,0.223-0.155,0.337c-0.057,0.127-0.114,0.254-0.164,0.385c-0.048,0.123-0.087,0.247-0.129,0.373
	c-0.033,0.098-0.072,0.193-0.101,0.294l-9.164,31.521c-1.259,4.332,1.232,8.866,5.564,10.126c0.761,0.222,1.529,0.327,2.285,0.327
	c3.54,0,6.803-2.32,7.841-5.891l3.817-13.132l42.44,73.507h-48.632c-4.513,0-8.17,3.658-8.17,8.17c0,4.512,3.657,8.17,8.17,8.17
	h62.784c2.919,0,5.616-1.558,7.075-4.085c1.46-2.527,1.46-5.643,0-8.17l-49.517-85.762l13.283,3.259
	C338.039,223.747,342.471,221.065,343.546,216.684z"/>
<path d="M459.09,57.731H434.58V42.483C434.58,19.057,415.254,0,391.502,0H120.497C96.743,0,77.419,19.057,77.419,42.483v15.248
	H52.909c-4.512,0-8.17,3.658-8.17,8.17c0,4.512,3.658,8.17,8.17,8.17h406.183c4.513,0,8.17-3.658,8.17-8.17
	C467.26,61.389,463.603,57.731,459.09,57.731z M93.76,42.483c0-14.416,11.994-26.143,26.737-26.143h271.005
	c14.743,0,26.738,11.727,26.738,26.143v15.248H93.76V42.483z"/>
<path d="M413.579,378.132c4.352,0,7.97-3.434,8.156-7.824l11.517-271.381c0.192-4.508-3.308-8.318-7.816-8.509
	c-4.52-0.219-8.319,3.307-8.509,7.816L405.41,369.615c-0.192,4.508,3.308,8.318,7.816,8.509
	C413.344,378.129,413.462,378.132,413.579,378.132z"/>
<path d="M300.246,494.347H138.565c-14.931,0-27.592-12.135-28.225-27.052L94.676,98.235c-0.191-4.508-4.003-8.023-8.509-7.816
	c-4.509,0.191-8.008,4-7.816,8.509l15.663,369.059c0.999,23.545,20.984,42.701,44.551,42.701h161.682c4.513,0,8.17-3.658,8.17-8.17
	C308.416,498.005,304.759,494.347,300.246,494.347z"/>
<path d="M370.141,383.122c-35.532,0-64.439,28.907-64.439,64.439S334.609,512,370.141,512s64.439-28.907,64.439-64.439
	S405.672,383.122,370.141,383.122z M370.141,495.66c-26.523,0-48.099-21.577-48.099-48.099s21.577-48.099,48.099-48.099
	c26.523,0,48.099,21.578,48.099,48.099C418.239,474.083,396.663,495.66,370.141,495.66z"/>
<path d="M393.729,439.391c-4.512,0-8.17,3.658-8.17,8.17c0,8.501-6.917,15.418-15.418,15.418c-8.501,0-15.418-6.916-15.418-15.418
	c0-8.501,6.917-15.418,15.418-15.418c4.513,0,8.17-3.658,8.17-8.17s-3.657-8.17-8.17-8.17c-17.512,0-31.758,14.247-31.758,31.758
	c0,17.512,14.247,31.758,31.758,31.758s31.758-14.247,31.758-31.758C401.899,443.049,398.242,439.391,393.729,439.391z"/>
<g>
</g>
<g>
</g>
<g>
</g>
<g>
</g>
<g>
</g>
<g>
</g>
<g>
</g>
<g>
</g>
<g>
</g>
<g>
</g>
<g>
</g>
<g>
</g>
<g>
</g>
<g>
</g>
<g>
</g>
</svg>
