<svg id="_x31__x2C_5" enable-background="new 0 0 24 24" height="512" viewBox="0 0 24 24" width="512" xmlns="http://www.w3.org/2000/svg"><path d="m21.25 23.25h-18.5c-1.105 0-2-.895-2-2v-5.5c0-1.105.895-2 2-2h18.5c1.105 0 2 .895 2 2v5.5c0 1.105-.895 2-2 2z" fill="#607d8b"/><path d="m13.75 11.75v-6.5c0-.28-.22-.5-.5-.5h-2.5c-.28 0-.5.22-.5.5v6.5h-3.5l5.25 5.5 5.25-5.5z" fill="#00bcd4"/><path d="m21.25 24h-18.5c-1.517 0-2.75-1.233-2.75-2.75v-5.5c0-1.517 1.233-2.75 2.75-2.75h1.5c.414 0 .75.336.75.75s-.336.75-.75.75h-1.5c-.689 0-1.25.561-1.25 1.25v5.5c0 .689.561 1.25 1.25 1.25h18.5c.689 0 1.25-.561 1.25-1.25v-5.5c0-.689-.561-1.25-1.25-1.25h-1.5c-.414 0-.75-.336-.75-.75s.336-.75.75-.75h1.5c1.517 0 2.75 1.233 2.75 2.75v5.5c0 1.517-1.233 2.75-2.75 2.75z"/><path d="m12 18c-.205 0-.401-.084-.542-.232l-5.25-5.5c-.208-.217-.266-.537-.147-.813s.389-.455.689-.455h2.75v-5.75c0-.689.561-1.25 1.25-1.25h2.5c.689 0 1.25.561 1.25 1.25v5.75h2.75c.3 0 .571.179.689.455s.061.596-.147.813l-5.25 5.5c-.141.148-.337.232-.542.232zm-3.497-5.5 3.497 3.664 3.497-3.664h-1.747c-.414 0-.75-.336-.75-.75v-6.25h-2v6.25c0 .414-.336.75-.75.75z"/></svg>