<svg xmlns="http://www.w3.org/2000/svg" viewBox="0 0 32 32"><g data-name="circle switch"><path d="M16,5A11,11,0,1,0,27,16,11,11,0,0,0,16,5Zm0,20a9,9,0,1,1,9-9A9,9,0,0,1,16,25Z"/><path d="M22.94 13.31a1 1 0 0 0 0-.25V13a.85.85 0 0 0-.06-.31 0 0 0 0 0 0 0h0a.85.85 0 0 0-.19-.3l0 0-3-3a1 1 0 0 0-1.42 1.42L19.59 12H16a1 1 0 0 0 0 2h3.59l-1.3 1.29a1 1 0 0 0 0 1.42 1 1 0 0 0 1.42 0l3-3a1 1 0 0 0 .19-.3A.3.3 0 0 0 22.94 13.31zM16 18H12.41l1.3-1.29a1 1 0 0 0-1.42-1.42l-3 3a1 1 0 0 0-.19.3.3.3 0 0 0 0 .1 1 1 0 0 0-.05.25V19a.85.85 0 0 0 .06.31 0 0 0 0 0 0 0h0a.85.85 0 0 0 .19.3l0 0 3 3a1 1 0 0 0 1.42 0 1 1 0 0 0 0-1.42L12.41 20H16a1 1 0 0 0 0-2z"/></g></svg>